# xmcd CD database file
#
# Track frame offsets:
#	150
#	64432
#	114690
#	164579
#	195693
#	229425
#	262405
#
# Disc length: 4148 seconds
#
# Revision: 0
# Processed by: cddbd v1.5.2PL0 Copyright (c) Steve Scherf et al.
# Submitted via: CDex 1.51
#
DISCID=73103207
DTITLE=Various Artist - Rhythms of Yoga
DYEAR=1900
DGENRE=New Age
TTITLE0=Bangara - Dance of joy
TTITLE1=Dhuni Instrumental
TTITLE2=Pantra Sa Ta Na Ma
TTITLE3=Punjabi Drums
TTITLE4=Gatka Rhythms - Dance of the sowrds
TTITLE5=Dynamic Pantra with Chaos
TTITLE6=Dynamic Gatka with Gong
EXTD=
EXTT0=
EXTT1=
EXTT2=
EXTT3=
EXTT4=
EXTT5=
EXTT6=
PLAYORDER=
